<svg width="20" height="20" viewBox="0 0 20 20" fill="none" xmlns="http://www.w3.org/2000/svg">
<path opacity="0.5" fill-rule="evenodd" clip-rule="evenodd" d="M10.6643 2.25256C10.2855 1.91581 9.7145 1.91581 9.3357 2.25256L9.33566 2.25259L6.16437 5.07149L6.16436 5.07149L4.00001 6.99537V14.3241C4.00001 15.2951 4.00213 15.9228 4.06431 16.3853C4.12263 16.8191 4.21678 16.955 4.29291 17.0312C4.36904 17.1073 4.50498 17.2014 4.93871 17.2598C5.40121 17.3219 6.02892 17.3241 7 17.3241V14.3241C7 12.6672 8.34312 11.3241 10 11.3241C11.6569 11.3241 13 12.6672 13 14.3241L13 17.3241C13.9711 17.3241 14.5988 17.3219 15.0613 17.2598C15.495 17.2014 15.631 17.1073 15.7071 17.0312C15.7832 16.955 15.8774 16.8191 15.9357 16.3853C15.9979 15.9228 16 15.2951 16 14.3241V6.99537L13.8356 5.07149L10.6643 2.25259L10.6643 2.25256ZM11 17.3241V14.3241C11 13.7718 10.5523 13.3241 10 13.3241C9.44768 13.3241 9 13.7718 9 14.3241V17.3241H11ZM8 19.3241H12H13L13.0658 19.3241H13.0659C13.9523 19.3241 14.7161 19.3242 15.3278 19.2419C15.9833 19.1538 16.6116 18.955 17.1213 18.4454C17.631 17.9357 17.8297 17.3074 17.9179 16.6518C18.0001 16.0402 18 15.2764 18 14.3899L18 14.3241V8.77315L18.3356 9.07149C18.7484 9.43841 19.3805 9.40122 19.7474 8.98844C20.1143 8.57566 20.0771 7.94359 19.6644 7.57667L15.1644 3.57667L14.5427 4.27608L15.1644 3.57667L11.9931 0.757796L11.9931 0.757765C10.8565 -0.252588 9.14352 -0.252588 8.00694 0.757765L8.00691 0.757796L4.83564 3.57667L4.83564 3.57667L0.335646 7.57667C-0.0771358 7.94359 -0.114316 8.57566 0.252601 8.98844C0.619519 9.40122 1.25159 9.43841 1.66437 9.07149L2.00001 8.77315V14.3241L2.00001 14.3899C1.99996 15.2764 1.99991 16.0402 2.08215 16.6518C2.17028 17.3074 2.36903 17.9357 2.87868 18.4454C3.38834 18.955 4.01669 19.1538 4.67221 19.2419C5.28386 19.3242 6.04766 19.3241 6.93412 19.3241H6.93417L7 19.3241H8Z" fill="white"/>
</svg>
